<svg xmlns="http://www.w3.org/2000/svg" width="47" height="53" viewBox="0 0 47 53">
  <path id="Atom" class="cls-1" d="M834.189,1582.5c-1.367,2.35-4.18,3.55-8.063,3.55a25.616,25.616,0,0,1-5.1-.58c-2.126,6.73-5.531,10.54-9.529,10.54s-7.4-3.81-9.527-10.53a26.026,26.026,0,0,1-5.193.58c-3.846,0-6.588-1.18-7.967-3.56-1.926-3.31-.39-7.98,4.2-13-4.583-5.02-6.121-9.69-4.2-13.01,1.906-3.27,6.642-4.31,13.158-2.96,2.128-6.73,5.532-10.54,9.53-10.54s7.4,3.81,9.529,10.54a24.667,24.667,0,0,1,5.578-.59c3.643,0.07,6.251,1.27,7.58,3.55,1.926,3.32.39,7.99-4.2,13.01C834.576,1574.52,836.113,1579.18,834.189,1582.5Zm-28-.6c1.649,6.66,4.134,9.14,5.312,9.14,1.036,0,3.08-1.92,4.68-6.9a54.609,54.609,0,0,1-5.762-2.33c-1.6-.75-3.175-1.57-4.676-2.43a0.255,0.255,0,0,0-.071-0.04C805.832,1580.2,805.984,1581.08,806.188,1581.9Zm-13-1.87c0.472,0.82,2.928,1.56,7.616.61a54.528,54.528,0,0,1-.861-6.12c-0.118-1.5-.177-3.05-0.186-4.6-0.52.45-1.025,0.9-1.5,1.36C793.508,1575.84,792.626,1579.07,793.185,1580.03Zm9.873-21.14c-6.173-1.71-9.33-.86-9.876.08-0.485.83,0.128,3.39,3.434,7.06,1.341-1.15,2.8-2.29,4.379-3.4,1.517-1.05,3.065-2.04,4.606-2.93C804.739,1559.4,803.886,1559.12,803.058,1558.89Zm13.755-1.8c-1.649-6.65-4.134-9.13-5.313-9.13-1.036,0-3.08,1.92-4.68,6.9a52.387,52.387,0,0,1,5.762,2.33c1.6,0.75,3.175,1.57,4.677,2.43,0.023,0.01.048,0.03,0.07,0.04C817.169,1558.79,817.016,1557.92,816.813,1557.09Zm1.27,8.93c-1.116-.75-2.239-1.46-3.358-2.11-1.04-.59-2.126-1.16-3.225-1.7-1.1.54-2.185,1.11-3.224,1.7-1.12.65-2.243,1.36-3.359,2.11-0.067,1.15-.134,2.3-0.134,3.48s0.067,2.33.134,3.48c1.116,0.75,2.239,1.46,3.359,2.1,1.041,0.6,2.126,1.17,3.224,1.71,1.1-.54,2.185-1.11,3.225-1.71,1.119-.64,2.242-1.35,3.358-2.1,0.068-1.15.135-2.3,0.135-3.48S818.151,1567.17,818.083,1566.02Zm-0.681,13.27c0.862,0.31,1.712.58,2.54,0.81,6.17,1.72,9.329.87,9.877-.07,0.485-.84-0.13-3.4-3.433-7.06-1.342,1.15-2.8,2.29-4.38,3.4C820.49,1577.42,818.941,1578.4,817.4,1579.29Zm12.413-20.33c-0.475-.81-2.929-1.55-7.616-0.61a54.72,54.72,0,0,1,.861,6.12c0.118,1.51.177,3.05,0.187,4.61,0.52-.45,1.025-0.91,1.5-1.36C829.493,1563.16,830.374,1559.93,829.815,1558.96ZM811.5,1572.81a3.315,3.315,0,1,1,3.359-3.31A3.334,3.334,0,0,1,811.5,1572.81Z" transform="translate(-788 -1543)"/>
</svg>
