<svg xmlns="http://www.w3.org/2000/svg" width="66" height="52" viewBox="0 0 66 52">
<path id="Graduation_Cap" class="cls-1" d="M1594.97,1558.25l-29.33-14.86a3.643,3.643,0,0,0-3.28,0l-29.33,14.86a3.738,3.738,0,0,0,0,6.65l1.64,0.83v13.07a3.67,3.67,0,1,0,3.66,0v-11.22l5.5,2.79V1582c0,7.18,9.03,13,20.17,13s20.17-5.82,20.17-13v-11.63l10.8-5.47A3.738,3.738,0,0,0,1594.97,1558.25Zm-16.3,23.75c0,3.43-6.41,7.43-14.67,7.43s-14.67-4-14.67-7.43v-8.85l13.03,6.6a3.643,3.643,0,0,0,3.28,0l13.03-6.6V1582Zm-14.67-7.65-25.24-12.78,25.24-12.78,25.24,12.78Z" transform="translate(-1531 -1543)"/>
</svg>
