<svg xmlns="http://www.w3.org/2000/svg" width="53" height="53" viewBox="0 0 53 53">
  <path id="Rocket" class="cls-1" d="M458.879,1570.32A33.862,33.862,0,0,1,449,1579.9a20.765,20.765,0,0,1-8.64,15.64,2.525,2.525,0,0,1-1.445.46,2.423,2.423,0,0,1-.95-0.19,2.492,2.492,0,0,1-1.5-1.88,21.857,21.857,0,0,0-2.859-7.22c-1.657.45-3.265,0.82-4.77,1.08a2.055,2.055,0,0,1-.426.04,2.489,2.489,0,0,1-1.759-.73l-6.75-6.75a2.483,2.483,0,0,1-.693-2.18c0.262-1.51.629-3.11,1.081-4.77a21.779,21.779,0,0,0-7.213-2.86,2.488,2.488,0,0,1-1.611-3.9A20.8,20.8,0,0,1,427.1,1558a33.781,33.781,0,0,1,9.575-9.88c7.263-4.73,15.894-5.12,24.841-5.12a2.484,2.484,0,0,1,2.488,2.48C464,1554.07,463.605,1563.07,458.879,1570.32Zm-18.989,20.22a16.6,16.6,0,0,0,4.552-8.01,55.329,55.329,0,0,1-6.786,2.91A28.033,28.033,0,0,1,439.89,1590.54Zm-23.435-23.43a27.619,27.619,0,0,1,5.1,2.23,55.594,55.594,0,0,1,2.911-6.78A16.467,16.467,0,0,0,416.455,1567.11Zm22.931-14.82c-7.92,5.15-13.168,16.27-15.045,25.47l4.891,4.89c9.2-1.87,20.32-7.12,25.478-15.04,3.575-5.49,4.207-12.37,4.3-19.62C451.753,1548.08,444.878,1548.71,439.386,1552.29Zm7.2,12.27a4.145,4.145,0,1,1,4.147-4.15A4.15,4.15,0,0,1,446.582,1564.56Zm-32.169,22.85a4.147,4.147,0,1,1,5.175,5.17l-5.941,1.8a0.649,0.649,0,0,1-.241.04,0.828,0.828,0,0,1-.829-0.83,0.866,0.866,0,0,1,.035-0.24Z" transform="translate(-411 -1543)"/>
</svg>
